<svg height="512pt" viewBox="0 0 512 512" width="512pt" xmlns="http://www.w3.org/2000/svg"><path d="m20 511.984375c-11.046875 0-20-8.957031-20-20v-32c0-87.613281 34.117188-169.980469 96.070312-231.933594 61.953126-61.953125 144.320313-96.070312 231.933594-96.070312l.003906-91.921875c0-16.238282 9.695313-30.75 24.707032-36.976563 15.03125-6.234375 32.183594-2.839843 43.695312 8.648438l97.960938 97.757812c11.367187 11.34375 17.628906 26.433594 17.628906 42.492188 0 16.058593-6.261719 31.152343-17.628906 42.496093l-97.960938 97.753907c-11.515625 11.488281-28.664062 14.886719-43.695312 8.648437-15.011719-6.222656-24.707032-20.738281-24.707032-36.972656v-21.925781c0-11.042969 8.953126-20 20-20 11.042969 0 20 8.957031 20 20v21.925781.011719c.03125.015625.070313.03125.101563.042969.015625-.015626.03125-.027344.046875-.042969l97.960938-97.757813c3.792968-3.785156 5.882812-8.820312 5.882812-14.179687s-2.089844-10.394531-5.882812-14.179688l-97.960938-97.753906c-.015625-.015625-.03125-.03125-.046875-.042969-.03125.011719-.070313.023438-.101563.042969v.011719 91.921875c0 22.058593-17.945312 40-40 40-158.808593 0-288.007812 129.199219-288.007812 288.003906v32c0 11.042969-8.953125 20-20 20zm348.019531-247.890625h.007813zm0 0"/></svg>